<svg xmlns="http://www.w3.org/2000/svg" xmlns:xlink="http://www.w3.org/1999/xlink" viewBox="0 0 42 43.9"><defs><style>.cls-1{isolation:isolate;}.cls-2{mix-blend-mode:multiply;opacity:0.8;fill:url(#radial-gradient);}.cls-3{fill:url(#linear-gradient);}.cls-4{fill:#fff;}</style><radialGradient id="radial-gradient" cx="21" cy="22.9" r="21" gradientUnits="userSpaceOnUse"><stop offset="0" stop-color="#000056"/><stop offset="0.39" stop-color="#7373a2" stop-opacity="0.55"/><stop offset="0.78" stop-color="#d9d9e6" stop-opacity="0.15"/><stop offset="1" stop-color="#fff" stop-opacity="0"/></radialGradient><linearGradient id="linear-gradient" x1="317.86" y1="-31.04" x2="342.61" y2="-6.29" gradientTransform="translate(-315.29 33.28)" gradientUnits="userSpaceOnUse"><stop offset="0" stop-color="#0fa383"/><stop offset="1" stop-color="#041f14"/></linearGradient></defs><g class="cls-1"><g id="ELEMENTS"><circle class="cls-2" cx="21" cy="22.9" r="21"/><rect class="cls-3" x="0.33" width="29.24" height="29.24" rx="7.65" transform="translate(29.57 -0.33) rotate(90)"/><path class="cls-4" d="M24.12,10.64a1.16,1.16,0,0,0-.09.41,4,4,0,0,1-1.09,2L20.5,15.5l-.08.07c0-.32,0-.61-.06-.9a5.91,5.91,0,0,0-.3-1.15.2.2,0,0,1,.06-.25l1.48-1.48a2.08,2.08,0,0,0,.58-2.22A2.17,2.17,0,0,0,20.46,8a2.05,2.05,0,0,0-1.85.5c-.46.42-.89.88-1.33,1.32-.77.76-1.51,1.55-2.3,2.28a2.23,2.23,0,0,0,.32,3.53l.08.06c-.42.43-.84.84-1.26,1.26-.06.07-.09,0-.14,0a4,4,0,0,1-1.55-2.86,3.91,3.91,0,0,1,1.2-3.21q1.76-1.77,3.53-3.53a4,4,0,0,1,2.35-1.19s.08,0,.1,0h.8a4.13,4.13,0,0,1,1,.18A4.28,4.28,0,0,1,23.51,8,3.94,3.94,0,0,1,24,9.05a5,5,0,0,1,.12.76Z"/><path class="cls-4" d="M10.84,13.67a5.5,5.5,0,0,0,.2,1.59c0,.13.08.27.13.39a.27.27,0,0,1-.08.37c-.49.47-1,1-1.44,1.44a2.09,2.09,0,0,0-.58,2.21,2.17,2.17,0,0,0,1.72,1.57,2,2,0,0,0,1.86-.51c.56-.52,1.09-1.08,1.64-1.62l2-2A2.19,2.19,0,0,0,16,13.64c-.11-.08-.11-.11,0-.2.38-.37.75-.74,1.12-1.12.08-.09.13-.07.22,0a4.05,4.05,0,0,1,.88,5.37,4.59,4.59,0,0,1-.6.72l-3.45,3.45a4,4,0,0,1-3.68,1.19,3.9,3.9,0,0,1-2.15-1.16,4,4,0,0,1,0-5.72l2.41-2.41Z"/></g></g></svg>