<svg xmlns="http://www.w3.org/2000/svg" xmlns:xlink="http://www.w3.org/1999/xlink" viewBox="0 0 43 43.62"><defs><style>.cls-1{isolation:isolate;}.cls-2{mix-blend-mode:multiply;opacity:0.8;fill:url(#radial-gradient);}.cls-3{fill:url(#linear-gradient);}.cls-4{fill:#fff;}</style><radialGradient id="radial-gradient" cx="21.5" cy="22.12" r="21.5" gradientUnits="userSpaceOnUse"><stop offset="0" stop-color="#000056"/><stop offset="0.39" stop-color="#7373a2" stop-opacity="0.55"/><stop offset="0.78" stop-color="#d9d9e6" stop-opacity="0.15"/><stop offset="1" stop-color="#fff" stop-opacity="0"/></radialGradient><linearGradient id="linear-gradient" x1="392.99" y1="178.51" x2="417.74" y2="203.26" gradientTransform="translate(206.13 -390.75) rotate(90)" gradientUnits="userSpaceOnUse"><stop offset="0" stop-color="#4676ed"/><stop offset="0.19" stop-color="#436de4"/><stop offset="0.49" stop-color="#3c55cd"/><stop offset="0.87" stop-color="#302ea8"/><stop offset="1" stop-color="#2b1e99"/></linearGradient></defs><g class="cls-1"><g id="ELEMENTS"><circle class="cls-2" cx="21.5" cy="22.12" r="21.5"/><path class="cls-3" d="M.62,21.59V7.65A7.68,7.68,0,0,1,8.27,0h14a7.67,7.67,0,0,1,7.65,7.65V21.59a7.67,7.67,0,0,1-7.65,7.65H17.53l-2.45-.6-2.12.6H8.27A7.68,7.68,0,0,1,.62,21.59Z"/><path class="cls-4" d="M20.94,19.33l.65-4.23H17.53V12.36a2.11,2.11,0,0,1,2.38-2.28h1.85V6.48a22.3,22.3,0,0,0-3.28-.29c-3.34,0-5.52,2-5.52,5.69V15.1H9.25v4.23H13v9.91h4.57V19.33Z"/></g></g></svg>