<svg xmlns="http://www.w3.org/2000/svg" xmlns:xlink="http://www.w3.org/1999/xlink" viewBox="0 0 43 45.1"><defs><style>.cls-1{isolation:isolate;}.cls-2{mix-blend-mode:multiply;opacity:0.8;fill:url(#radial-gradient);}.cls-3{fill:url(#Degradado_sin_nombre_10);}.cls-4{fill:#fff;}</style><radialGradient id="radial-gradient" cx="21.5" cy="23.6" r="21.5" gradientUnits="userSpaceOnUse"><stop offset="0" stop-color="#000056"/><stop offset="0.39" stop-color="#7373a2" stop-opacity="0.55"/><stop offset="0.78" stop-color="#d9d9e6" stop-opacity="0.15"/><stop offset="1" stop-color="#fff" stop-opacity="0"/></radialGradient><linearGradient id="Degradado_sin_nombre_10" x1="310.41" y1="36.76" x2="335.16" y2="61.51" gradientTransform="translate(-306.52 -34.52)" gradientUnits="userSpaceOnUse"><stop offset="0" stop-color="#007ab5"/><stop offset="1" stop-color="#0046e5"/></linearGradient></defs><g class="cls-1"><g id="ELEMENTS"><circle class="cls-2" cx="21.5" cy="23.6" r="21.5"/><rect class="cls-3" x="1.64" width="29.24" height="29.24" rx="7.65" transform="translate(30.88 -1.64) rotate(90)"/><path class="cls-4" d="M10.13,11.9H13V21H10.13Zm1.41-4.52A1.64,1.64,0,1,1,9.9,9a1.63,1.63,0,0,1,1.64-1.64"/><path class="cls-4" d="M14.73,11.9h2.72v1.24h0a3,3,0,0,1,2.68-1.47c2.86,0,3.39,1.89,3.39,4.34v5H20.73V16.57c0-1.05,0-2.41-1.47-2.41s-1.7,1.15-1.7,2.34V21H14.73Z"/></g></g></svg>