<svg xmlns="http://www.w3.org/2000/svg" xmlns:xlink="http://www.w3.org/1999/xlink" viewBox="0 0 42.07 44.17"><defs><style>.cls-1{isolation:isolate;}.cls-2{mix-blend-mode:multiply;opacity:0.8;fill:url(#radial-gradient);}.cls-3{fill:url(#Degradado_sin_nombre_5);}.cls-4{fill:#fff;fill-rule:evenodd;}</style><radialGradient id="radial-gradient" cx="21.07" cy="23.17" r="21" gradientUnits="userSpaceOnUse"><stop offset="0" stop-color="#000056"/><stop offset="0.39" stop-color="#7373a2" stop-opacity="0.55"/><stop offset="0.78" stop-color="#d9d9e6" stop-opacity="0.15"/><stop offset="1" stop-color="#fff" stop-opacity="0"/></radialGradient><linearGradient id="Degradado_sin_nombre_5" x1="488.24" y1="79.86" x2="512.99" y2="104.61" gradientTransform="translate(-485.99 -77.61)" gradientUnits="userSpaceOnUse"><stop offset="0" stop-color="#fc4d3f"/><stop offset="1" stop-color="#cd083f"/></linearGradient></defs><g class="cls-1"><g id="ELEMENTS"><circle class="cls-2" cx="21.07" cy="23.17" r="21"/><rect class="cls-3" width="29.24" height="29.24" rx="7.65" transform="translate(29.24 0) rotate(90)"/><path class="cls-4" d="M13.5,17.8a1,1,0,0,0,0,.14c-.66,2.55-.73,3.12-1.4,4.31A14.38,14.38,0,0,1,11,23.85c-.05.06-.09.14-.18.12s-.11-.11-.12-.19a14.08,14.08,0,0,1-.14-2.34c0-1,.16-1.37,1.48-6.9a.46.46,0,0,0,0-.23,3.9,3.9,0,0,1-.11-2.59c.6-1.88,2.74-2,3.11-.47.23,1-.38,2.22-.84,4.09-.39,1.53,1.42,2.62,3,1.5s2-3.51,1.88-5.27c-.21-3.5-4.05-4.26-6.49-3.13-2.79,1.29-3.43,4.75-2.17,6.34.16.2.29.32.23.53s-.15.63-.24,1a.34.34,0,0,1-.5.22,2.85,2.85,0,0,1-1.16-.87,5.54,5.54,0,0,1,0-6.18,7.42,7.42,0,0,1,7.15-3.15,6.05,6.05,0,0,1,5.57,5,8.29,8.29,0,0,1-1.53,5.86c-1.81,2.25-4.75,2.4-6.11,1A3.51,3.51,0,0,1,13.5,17.8Z"/></g></g></svg>