<svg xmlns="http://www.w3.org/2000/svg" xmlns:xlink="http://www.w3.org/1999/xlink" viewBox="0 0 42 44.17"><defs><style>.cls-1{isolation:isolate;}.cls-2{mix-blend-mode:multiply;opacity:0.8;fill:url(#radial-gradient);}.cls-3{fill:url(#Degradado_sin_nombre_4);}.cls-4{fill:#fff;}</style><radialGradient id="radial-gradient" cx="21" cy="23.17" r="21" gradientUnits="userSpaceOnUse"><stop offset="0" stop-color="#000056"/><stop offset="0.39" stop-color="#7373a2" stop-opacity="0.55"/><stop offset="0.78" stop-color="#d9d9e6" stop-opacity="0.15"/><stop offset="1" stop-color="#fff" stop-opacity="0"/></radialGradient><linearGradient id="Degradado_sin_nombre_4" x1="390.9" y1="142.07" x2="415.65" y2="166.82" gradientTransform="translate(-388.33 -139.82)" gradientUnits="userSpaceOnUse"><stop offset="0" stop-color="#3cf"/><stop offset="1" stop-color="#337fff"/></linearGradient></defs><g class="cls-1"><g id="ELEMENTS"><circle class="cls-2" cx="21" cy="23.17" r="21"/><rect class="cls-3" x="0.33" width="29.24" height="29.24" rx="7.65" transform="translate(29.57 -0.33) rotate(90)"/><path class="cls-4" d="M23,9.61a6.57,6.57,0,0,1-1.61.46c.25,0,.64-.51.79-.7a3,3,0,0,0,.53-1s0-.06,0-.08a.08.08,0,0,0-.09,0,8.66,8.66,0,0,1-1.91.73.13.13,0,0,1-.13,0l-.17-.17a3.37,3.37,0,0,0-.92-.57A3.29,3.29,0,0,0,18.1,8a3.56,3.56,0,0,0-1.35.39,3.44,3.44,0,0,0-1.09.88,3.39,3.39,0,0,0-.65,1.3A3.56,3.56,0,0,0,15,12c0,.07,0,.08-.07.07A10.24,10.24,0,0,1,8.34,8.72c-.07-.09-.12-.09-.18,0a3.32,3.32,0,0,0,.57,3.93c.13.12.26.25.4.36a3.38,3.38,0,0,1-1.27-.36c-.07-.05-.11,0-.12.07s0,.24,0,.38a3.38,3.38,0,0,0,2.08,2.68,1.57,1.57,0,0,0,.42.13A3.51,3.51,0,0,1,9,16c-.09,0-.13,0-.09.11a3.49,3.49,0,0,0,2.61,2.19c.12,0,.24,0,.36,0l0,0c-.29.45-1.31.78-1.78,1a6.4,6.4,0,0,1-2.71.34c-.15,0-.18,0-.22,0s0,.06,0,.1.37.23.56.34a9.11,9.11,0,0,0,1.81.72A9.65,9.65,0,0,0,19,18.59a9.83,9.83,0,0,0,2.59-7.17c0-.1.12-.16.19-.22A6.16,6.16,0,0,0,23,9.88a.4.4,0,0,0,.08-.25v0S23.09,9.58,23,9.61Z"/></g></g></svg>