<svg xmlns="http://www.w3.org/2000/svg" xmlns:xlink="http://www.w3.org/1999/xlink" viewBox="0 0 42 43.9"><defs><style>.cls-1{isolation:isolate;}.cls-2{mix-blend-mode:multiply;opacity:0.8;fill:url(#radial-gradient);}.cls-3{fill:url(#Degradado_sin_nombre_8);}.cls-4,.cls-5{fill:#fff;}.cls-5{fill-rule:evenodd;}</style><radialGradient id="radial-gradient" cx="21" cy="22.9" r="21" gradientUnits="userSpaceOnUse"><stop offset="0" stop-color="#000056"/><stop offset="0.39" stop-color="#7373a2" stop-opacity="0.55"/><stop offset="0.78" stop-color="#d9d9e6" stop-opacity="0.15"/><stop offset="1" stop-color="#fff" stop-opacity="0"/></radialGradient><linearGradient id="Degradado_sin_nombre_8" x1="301.21" y1="90.53" x2="325.96" y2="115.28" gradientTransform="translate(-298.64 -88.28)" gradientUnits="userSpaceOnUse"><stop offset="0" stop-color="#60fc7c"/><stop offset="1" stop-color="#4ab161"/></linearGradient></defs><g class="cls-1"><g id="ELEMENTS"><circle class="cls-2" cx="21" cy="22.9" r="21"/><rect class="cls-3" x="0.33" width="29.24" height="29.24" rx="7.65" transform="translate(29.57 -0.33) rotate(90)"/><path class="cls-4" d="M7.05,22.9l1.22-4.55a8.42,8.42,0,1,1,3.35,3.32ZM11.85,20l.29.17A6.85,6.85,0,1,0,9.8,17.82l.18.29L9.3,20.65Z"/><path class="cls-5" d="M18.74,15.46a1.39,1.39,0,0,0-1.2-.27c-.32.12-.52.61-.72.86a.31.31,0,0,1-.39.09,5.42,5.42,0,0,1-2.71-2.33.34.34,0,0,1,0-.46,1.85,1.85,0,0,0,.49-.8,1.77,1.77,0,0,0-.22-1,2.24,2.24,0,0,0-.7-1,1,1,0,0,0-1,.15,2.16,2.16,0,0,0-.74,1.68,3.07,3.07,0,0,0,.07.53,4.26,4.26,0,0,0,.51,1.18,8.67,8.67,0,0,0,.53.81A8.27,8.27,0,0,0,15,17a7.14,7.14,0,0,0,1.45.69,3.09,3.09,0,0,0,1.67.26,2,2,0,0,0,1.52-1.13,1,1,0,0,0,.08-.58C19.6,15.89,19.06,15.65,18.74,15.46Z"/></g></g></svg>