<?xml version="1.0" standalone="no"?>
<!DOCTYPE svg PUBLIC "-//W3C//DTD SVG 20010904//EN""http://www.w3.org/TR/2001/REC-SVG-20010904/DTD/svg10.dtd">
<svg version="1.0" xmlns="http://www.w3.org/2000/svg"
 width="1852.000000pt" height="1852.000000pt" viewBox="0 0 1852.000000 1852.000000"
 preserveAspectRatio="xMidYMid meet">
<metadata>
Created by potrace 1.14, written by Peter Selinger 2001-2017
</metadata>
    <g transform="translate(0.000000,1852.000000) scale(0.100000,-0.100000)"
    fill="#000000" stroke="none">
    <path d="M9315 18234 c-5 -1 -113 -5 -240 -8 -126 -2 -241 -7 -255 -9 -14 -3
    -70 -8 -125 -12 -55 -3 -118 -8 -140 -11 -22 -2 -61 -6 -86 -8 -26 -2 -50 -6
    -55 -8 -5 -3 -38 -9 -74 -13 -77 -9 -88 -10 -160 -24 -30 -6 -68 -13 -85 -16
    -63 -11 -93 -17 -235 -50 -63 -14 -124 -28 -135 -29 -11 -2 -27 -6 -35 -9 -8
    -3 -51 -15 -95 -27 -44 -12 -100 -29 -125 -37 -25 -8 -52 -16 -60 -18 -8 -2
    -17 -4 -20 -6 -3 -1 -9 -3 -15 -4 -10 -2 -15 -4 -60 -21 -11 -4 -24 -8 -30 -8
    -9 -1 -38 -11 -100 -36 -11 -4 -40 -15 -65 -24 -25 -8 -58 -21 -75 -27 -16 -7
    -38 -14 -48 -16 -10 -1 -31 -10 -47 -18 -16 -8 -36 -15 -45 -15 -8 0 -15 -4
    -15 -10 0 -5 -7 -10 -15 -10 -15 0 -39 -10 -193 -81 -46 -22 -90 -39 -98 -39
    -8 0 -14 -4 -14 -9 0 -5 -10 -13 -22 -17 -31 -9 -152 -67 -158 -74 -3 -4 -24
    -15 -47 -25 -24 -11 -43 -23 -43 -29 0 -5 -3 -6 -6 -3 -4 4 -19 -2 -33 -12
    -14 -10 -32 -16 -40 -13 -8 3 -11 0 -7 -6 4 -7 -4 -14 -19 -18 -14 -3 -25 -10
    -25 -15 0 -5 -6 -9 -14 -9 -7 0 -19 -7 -26 -15 -7 -8 -16 -12 -21 -10 -4 3
    -11 0 -16 -7 -4 -7 -17 -20 -27 -28 -18 -13 -19 -13 -12 0 4 9 1 8 -7 -2 -8
    -10 -18 -18 -22 -18 -15 0 -348 -217 -382 -250 -13 -11 -23 -17 -23 -13 0 4
    -5 0 -11 -10 -6 -9 -14 -15 -20 -12 -5 4 -12 -1 -15 -9 -3 -9 -12 -16 -20 -16
    -8 0 -14 -4 -14 -10 0 -5 -3 -9 -8 -7 -4 1 -19 -8 -32 -21 -14 -12 -56 -45
    -95 -74 -38 -29 -75 -57 -82 -63 -6 -5 -30 -26 -54 -45 -23 -19 -57 -50 -76
    -67 -18 -18 -38 -33 -44 -33 -5 0 -7 -4 -4 -10 3 -5 2 -10 -4 -10 -5 0 -28
    -17 -50 -37 -23 -21 -64 -58 -92 -83 -67 -59 -248 -243 -293 -298 -20 -24 -36
    -41 -36 -37 0 4 -10 -5 -22 -21 -12 -16 -25 -31 -28 -34 -4 -3 -9 -13 -13 -23
    -4 -10 -11 -15 -17 -12 -5 3 -10 2 -10 -2 0 -5 -21 -31 -47 -58 -26 -27 -41
    -45 -33 -40 8 5 2 -5 -15 -21 -16 -16 -43 -47 -60 -68 -16 -21 -37 -46 -46
    -55 -9 -9 -46 -56 -83 -106 -37 -49 -73 -97 -80 -106 -7 -9 -74 -40 -147 -68
    -74 -29 -138 -57 -144 -62 -5 -5 -15 -9 -21 -9 -7 0 -57 -21 -111 -47 -54 -26
    -100 -48 -103 -48 -15 -2 -322 -164 -382 -202 -21 -13 -39 -23 -42 -23 -6 0
    -107 -62 -143 -87 -17 -13 -34 -23 -37 -23 -4 0 -12 -5 -19 -11 -7 -5 -27 -20
    -46 -32 -19 -12 -46 -30 -60 -39 -14 -10 -33 -21 -41 -25 -8 -3 -17 -9 -20
    -12 -9 -10 -69 -51 -75 -51 -7 0 -100 -70 -132 -100 -12 -11 -27 -20 -32 -20
    -5 0 -11 -4 -13 -8 -3 -7 -161 -133 -223 -177 -15 -11 -47 -38 -70 -60 -23
    -22 -68 -62 -101 -90 -67 -57 -442 -425 -432 -425 3 0 -16 -21 -42 -47 -26
    -27 -95 -106 -154 -178 -60 -71 -116 -139 -125 -150 -76 -91 -341 -474 -399
    -575 -11 -19 -49 -86 -86 -148 -36 -62 -91 -161 -122 -220 -31 -59 -67 -126
    -80 -149 -13 -24 -20 -43 -16 -43 4 0 2 -4 -4 -8 -10 -6 -74 -135 -74 -147 0
    -3 -7 -19 -15 -35 -8 -16 -16 -32 -16 -35 0 -2 -11 -31 -26 -62 -32 -73 -45
    -105 -49 -118 -7 -28 -65 -182 -74 -197 -6 -10 -10 -22 -10 -27 0 -5 -5 -22
    -12 -38 -6 -15 -12 -32 -13 -38 -2 -5 -12 -37 -23 -70 -12 -33 -26 -80 -33
    -105 -15 -54 -14 -51 -22 -70 -17 -44 -50 -163 -62 -225 -2 -11 -10 -46 -18
    -77 -8 -32 -12 -58 -9 -58 2 0 0 -6 -5 -12 -6 -7 -10 -20 -10 -28 0 -8 -8 -46
    -18 -85 -24 -101 -65 -337 -80 -470 -2 -16 -6 -48 -9 -70 -3 -22 -6 -58 -7
    -80 -2 -22 -5 -44 -7 -49 -3 -5 -6 -36 -8 -70 -1 -33 -6 -115 -10 -181 -20
    -318 -5 -803 33 -1065 4 -25 7 -58 9 -75 1 -16 4 -46 7 -65 4 -19 11 -70 17
    -113 14 -93 17 -114 31 -187 6 -30 12 -64 14 -75 3 -17 18 -86 30 -135 2 -8
    20 -76 40 -150 19 -74 37 -142 39 -150 17 -68 28 -108 35 -125 9 -20 35 -114
    36 -127 0 -3 3 -10 8 -14 4 -4 7 -17 7 -29 0 -12 3 -24 6 -28 4 -3 17 -37 29
    -74 13 -37 29 -81 36 -98 7 -16 13 -34 15 -40 1 -5 19 -50 39 -100 21 -49 43
    -103 50 -120 25 -64 47 -112 65 -148 11 -22 20 -45 20 -53 0 -8 5 -14 10 -14
    6 0 10 -5 10 -11 0 -12 106 -227 121 -245 5 -6 6 -14 2 -17 -3 -4 -1 -7 5 -7
    7 0 12 -4 12 -9 0 -5 31 -62 68 -128 38 -65 79 -136 92 -158 41 -71 156 -250
    175 -271 6 -6 17 -22 25 -34 8 -12 20 -28 27 -35 7 -7 9 -15 6 -19 -4 -3 0 -6
    7 -6 7 0 11 -3 7 -6 -5 -5 10 -28 44 -64 24 -25 36 -67 38 -135 1 -33 5 -73 7
    -90 2 -16 6 -52 9 -80 2 -27 6 -68 9 -90 3 -22 8 -62 11 -90 4 -27 9 -63 12
    -80 2 -16 6 -43 9 -60 2 -16 8 -55 14 -85 6 -30 13 -68 16 -85 3 -16 7 -41 9
    -55 1 -14 5 -32 8 -40 3 -8 8 -26 10 -40 3 -14 8 -36 12 -50 3 -14 9 -42 12
    -62 3 -21 8 -38 12 -38 3 0 7 -10 8 -22 2 -29 8 -62 23 -118 6 -25 12 -52 14
    -60 1 -8 5 -22 8 -30 17 -42 63 -197 62 -207 -1 -7 2 -13 6 -13 4 0 11 -16 15
    -36 3 -20 10 -44 15 -53 4 -9 18 -47 30 -86 26 -87 62 -178 73 -186 5 -3 8
    -10 8 -15 -1 -13 20 -77 29 -89 5 -5 9 -14 10 -20 5 -23 9 -31 86 -202 28 -63
    179 -368 194 -393 5 -8 34 -60 66 -115 75 -132 228 -381 244 -395 3 -3 10 -12
    15 -22 32 -53 166 -238 193 -266 6 -7 12 -16 12 -20 0 -4 17 -25 38 -48 20
    -23 51 -59 67 -80 17 -21 71 -86 120 -143 50 -57 104 -120 120 -140 17 -19 44
    -49 60 -66 17 -17 64 -67 106 -111 105 -108 205 -202 329 -309 58 -49 107 -92
    110 -95 5 -7 178 -144 239 -190 148 -112 187 -140 197 -140 7 0 14 -7 18 -15
    3 -8 10 -15 15 -15 5 0 45 -25 90 -55 45 -30 86 -55 91 -55 6 0 10 -4 10 -8 0
    -5 12 -15 27 -23 16 -7 42 -24 59 -36 17 -13 33 -23 36 -23 4 0 39 -20 79 -45
    40 -25 79 -45 86 -45 7 0 13 -3 13 -7 0 -5 10 -13 23 -19 12 -6 113 -57 224
    -112 111 -56 205 -102 208 -102 3 0 38 -15 78 -34 195 -91 743 -286 806 -286
    9 0 21 -4 27 -9 5 -4 38 -14 74 -22 81 -17 72 -15 90 -22 8 -3 42 -11 75 -18
    33 -7 65 -14 70 -16 18 -5 120 -25 138 -26 9 -1 17 -5 17 -10 0 -4 3 -6 8 -4
    4 3 36 -1 72 -9 36 -8 81 -16 100 -19 19 -2 44 -6 55 -9 38 -7 130 -19 165
    -21 19 -1 55 -5 80 -8 25 -3 81 -9 125 -13 44 -4 94 -8 110 -10 311 -32 905
    -21 1215 23 25 3 54 7 65 8 29 3 176 26 200 32 11 2 34 6 50 9 17 3 53 9 80
    14 28 5 65 12 84 15 19 3 93 20 165 36 72 17 140 32 152 33 11 1 24 5 30 8 5
    3 26 9 48 12 21 4 46 11 55 16 35 18 288 95 311 94 14 -1 77 -13 140 -28 63
    -16 124 -30 135 -32 25 -5 171 -33 205 -39 14 -3 50 -9 80 -15 30 -6 75 -13
    100 -15 25 -2 79 -9 120 -15 86 -12 177 -20 270 -25 36 -1 90 -6 120 -10 63
    -8 725 -7 761 1 13 3 53 7 89 8 36 2 83 6 105 9 22 3 69 9 105 12 36 3 81 8
    100 11 19 3 53 7 75 9 22 2 40 4 40 5 0 1 16 4 35 6 19 2 46 7 60 11 14 3 36
    7 50 8 14 1 63 9 110 18 109 22 116 23 170 36 25 7 56 14 70 16 57 10 122 26
    135 34 6 3 15 6 20 6 23 1 199 48 235 63 8 3 20 7 25 7 10 2 34 10 73 26 13 5
    28 7 33 4 5 -4 9 -1 9 4 0 6 6 11 14 11 8 0 25 4 38 9 13 5 28 10 33 11 6 1
    30 10 55 20 25 10 48 18 53 19 4 0 24 8 45 17 20 9 42 17 47 18 11 3 9 3 135
    54 81 32 112 46 214 92 25 11 50 20 55 20 6 0 11 5 11 12 0 6 3 9 6 6 3 -3 31
    7 62 23 31 16 63 29 70 29 6 0 12 5 12 10 0 6 6 10 13 10 6 0 23 6 37 13 153
    81 231 124 262 144 21 12 42 23 48 23 5 0 10 4 10 9 0 5 12 14 28 20 15 6 72
    40 127 76 55 35 113 72 130 81 16 9 35 23 43 30 7 8 17 14 20 14 4 0 32 20 62
    45 30 25 60 45 67 45 7 0 16 6 20 12 4 7 15 18 24 23 43 26 127 87 149 107 14
    13 72 62 130 108 58 47 125 105 150 130 25 25 48 44 52 42 15 -4 479 468 558
    568 19 25 44 54 55 65 37 38 85 103 85 114 0 6 4 11 9 11 14 0 155 185 269
    355 56 83 106 155 112 162 5 7 10 14 10 15 0 2 42 73 93 159 51 85 110 191
    132 234 22 44 43 82 46 85 6 5 139 277 139 285 0 2 11 28 24 57 21 48 36 85
    41 98 1 3 5 14 10 25 9 22 13 33 82 200 25 61 47 117 49 125 1 8 24 76 49 149
    25 74 45 142 45 151 0 9 4 20 9 25 5 6 14 33 20 60 6 28 13 57 16 65 2 8 13
    51 24 95 11 44 26 106 34 138 8 31 12 57 9 57 -2 0 0 6 5 13 6 6 9 23 8 37 -1
    14 1 30 5 35 7 9 14 38 24 105 2 14 9 57 16 95 7 39 14 81 16 95 7 56 14 108
    20 160 3 30 8 63 10 74 2 11 6 44 9 75 3 31 7 79 10 106 12 126 18 239 19 346
    l1 115 51 75 c29 41 83 126 121 189 59 98 87 147 167 295 6 11 15 23 19 26 5
    3 8 9 8 13 -1 3 16 39 36 79 21 39 40 77 42 82 2 6 21 46 41 90 77 166 129
    288 135 319 3 10 8 23 13 30 5 6 14 25 20 41 6 17 20 55 32 85 23 58 71 202
    91 273 15 52 14 49 22 67 10 26 39 120 42 138 2 9 4 18 5 20 2 1 3 5 4 10 1 4
    5 13 9 20 5 6 6 12 3 12 -3 0 1 18 9 39 7 22 11 42 8 44 -3 3 -1 12 3 19 4 7
    9 19 10 28 1 8 7 35 13 60 6 25 13 54 15 65 12 69 18 91 26 99 5 5 6 15 3 22
    -3 8 -2 22 2 32 5 9 10 26 11 37 9 48 27 162 30 185 2 14 9 54 14 90 6 36 13
    85 16 110 3 25 7 59 9 75 2 17 6 59 9 95 4 36 9 90 12 120 24 217 24 771 -1
    995 -6 59 -14 142 -20 205 -8 79 -12 124 -19 170 -3 25 -8 59 -10 75 -2 17 -5
    30 -6 30 -1 0 -4 18 -5 40 -2 22 -8 65 -14 95 -6 30 -14 69 -17 85 -2 17 -9
    44 -13 60 -5 17 -13 48 -17 70 -9 48 -5 32 -44 185 -17 69 -33 132 -35 140 -2
    8 -4 15 -5 15 -1 0 -3 8 -5 18 -5 24 -53 181 -78 252 -11 33 -21 67 -22 75 -3
    19 -14 50 -26 73 -5 10 -7 22 -4 27 3 4 2 10 -2 12 -5 1 -30 59 -57 128 -27
    69 -56 141 -65 160 -8 19 -15 40 -17 45 -2 10 -31 74 -121 265 -25 52 -50 98
    -55 101 -5 3 -10 9 -10 12 0 19 -12 47 -19 47 -5 0 -8 3 -7 8 3 10 -50 108
    -136 252 -15 25 -29 53 -33 63 -3 9 -9 17 -14 17 -5 0 -9 5 -9 11 0 10 -29 57
    -119 193 -25 37 -53 78 -61 91 -8 12 -24 35 -35 51 -24 36 -227 307 -235 314
    -3 3 -33 39 -67 80 -33 41 -78 94 -99 117 -22 23 -46 51 -55 63 -25 32 -258
    277 -319 336 -53 51 -121 111 -164 146 -12 10 -30 26 -41 36 -25 23 -155 134
    -173 147 -7 6 -23 20 -34 33 -12 12 -26 22 -31 22 -5 0 -17 8 -26 18 -9 10
    -28 27 -42 37 -14 11 -53 40 -85 64 -32 25 -60 48 -62 53 -2 4 -7 8 -12 8 -5
    0 -47 28 -95 63 -47 34 -94 66 -103 72 -9 5 -48 30 -87 55 -38 25 -82 52 -96
    60 -14 8 -68 41 -121 73 -53 31 -101 57 -106 57 -6 0 -12 3 -14 8 -2 4 -48 30
    -103 57 -55 28 -103 54 -106 58 -3 5 -10 9 -15 10 -5 0 -61 25 -124 55 -182
    85 -239 110 -345 152 -121 48 -130 52 -131 48 0 -2 -7 2 -15 8 -8 6 -45 21
    -84 33 -38 13 -77 25 -85 28 -18 8 -16 7 -70 22 -127 36 -154 49 -198 98 -200
    222 -373 399 -506 518 -44 39 -88 79 -100 90 -12 11 -41 36 -66 56 -45 37 -82
    68 -110 91 -8 7 -37 31 -65 52 -27 22 -52 43 -55 47 -3 4 -70 52 -150 107 -80
    55 -149 105 -155 109 -44 38 -456 290 -480 293 -5 1 -17 7 -25 14 -29 25 -397
    204 -545 265 -82 34 -159 66 -170 71 -88 41 -585 205 -655 216 -13 2 -171 41
    -250 61 -14 3 -32 7 -40 8 -8 2 -37 8 -65 14 -27 6 -63 13 -79 16 -15 2 -35 6
    -45 9 -9 3 -36 8 -61 11 -25 3 -52 8 -61 11 -10 3 -30 6 -45 9 -58 8 -110 16
    -144 21 -57 11 -92 15 -150 18 -30 2 -84 7 -120 10 -138 13 -209 17 -328 21
    -68 3 -126 6 -130 8 -4 3 -11 3 -17 1z m106 -5825 c68 -23 129 -45 134 -49 6
    -4 23 -10 40 -14 16 -4 47 -15 70 -25 41 -19 76 -33 85 -36 3 -1 22 -9 44 -18
    21 -9 40 -17 41 -17 1 0 20 -8 41 -17 22 -9 41 -17 44 -18 3 0 20 -9 37 -18
    18 -10 35 -17 38 -17 12 -1 46 -15 135 -58 52 -25 97 -46 100 -47 3 0 16 -7
    30 -15 14 -7 48 -26 75 -40 136 -73 213 -115 240 -132 17 -10 45 -25 63 -33
    17 -8 32 -19 32 -23 0 -5 16 -14 35 -22 19 -8 35 -17 35 -22 0 -4 4 -8 9 -8
    12 0 288 -184 317 -211 11 -10 26 -19 32 -19 7 0 12 -4 12 -10 0 -5 7 -10 15
    -10 8 0 15 -4 15 -10 0 -5 6 -10 14 -10 8 0 16 -3 18 -7 2 -5 30 -28 63 -53
    33 -25 68 -52 78 -61 10 -9 57 -48 104 -85 47 -38 109 -91 138 -119 28 -27
    101 -95 160 -150 59 -55 120 -113 134 -130 14 -16 59 -63 99 -104 39 -41 72
    -77 72 -79 0 -3 23 -26 50 -53 28 -27 48 -49 45 -49 -5 0 14 -23 70 -85 36
    -40 93 -110 193 -240 50 -66 133 -179 157 -215 28 -42 30 -51 29 -140 -2 -162
    -14 -355 -35 -565 -5 -60 -12 -128 -13 -150 -2 -22 -7 -62 -11 -90 -16 -115
    -24 -171 -30 -195 -5 -23 -24 -136 -29 -170 -3 -19 -16 -70 -23 -90 -3 -8 -7
    -26 -9 -40 -1 -14 -5 -34 -8 -45 -2 -11 -10 -42 -16 -70 -16 -69 -17 -73 -35
    -135 -9 -30 -25 -84 -35 -120 -35 -119 -49 -164 -74 -237 -14 -39 -27 -82 -30
    -96 -2 -14 -21 -66 -40 -115 -20 -49 -36 -95 -36 -101 0 -6 -4 -11 -10 -11 -5
    0 -9 -3 -8 -7 1 -5 -8 -30 -20 -57 -12 -27 -22 -50 -22 -53 0 -2 -9 -25 -21
    -51 -12 -26 -28 -63 -37 -82 -26 -61 -181 -373 -204 -414 -13 -22 -29 -46 -36
    -54 -7 -7 -10 -18 -7 -23 4 -5 2 -9 -4 -9 -6 0 -13 -11 -17 -25 -3 -14 -9 -25
    -13 -25 -4 0 -20 -26 -36 -57 -17 -32 -33 -60 -36 -63 -4 -3 -17 -25 -29 -50
    -12 -25 -26 -47 -30 -50 -3 -3 -15 -21 -26 -40 -10 -19 -22 -39 -27 -45 -35
    -48 -78 -113 -84 -125 -4 -8 -9 -17 -12 -20 -9 -8 -30 -43 -41 -69 -7 -16 -16
    -22 -30 -18 -11 3 -59 -10 -106 -29 -47 -18 -101 -36 -120 -40 -19 -3 -37 -10
    -40 -15 -3 -5 -10 -6 -16 -3 -6 4 -13 2 -17 -3 -3 -5 -26 -14 -51 -20 -25 -6
    -97 -25 -160 -43 -63 -18 -122 -34 -130 -35 -8 -2 -17 -4 -20 -6 -3 -1 -9 -3
    -15 -4 -22 -4 -71 -17 -85 -22 -8 -4 -22 -7 -30 -8 -8 -1 -22 -4 -30 -7 -8 -4
    -40 -11 -70 -17 -30 -6 -66 -14 -80 -16 -48 -10 -135 -27 -160 -30 -14 -2 -53
    -8 -86 -14 -34 -6 -74 -12 -90 -13 -16 -1 -33 -4 -39 -7 -5 -3 -23 -6 -40 -7
    -16 -1 -79 -7 -140 -14 -60 -7 -135 -14 -165 -16 -30 -2 -80 -6 -110 -9 -69
    -8 -609 -9 -710 -1 -41 3 -109 7 -150 10 -71 4 -249 22 -315 32 -56 7 -210 33
    -240 39 -42 9 -124 24 -165 30 -50 8 -69 12 -120 24 -43 11 -65 16 -120 26
    -20 4 -109 27 -225 60 -5 1 -25 6 -43 10 -18 4 -35 12 -38 16 -3 5 -9 7 -14 4
    -28 -17 -112 70 -195 204 -5 9 -12 18 -15 21 -14 12 -90 131 -90 139 0 5 -3
    11 -7 13 -11 4 -63 85 -63 97 0 5 -4 11 -8 13 -17 6 -221 357 -298 513 -80
    160 -164 340 -164 349 0 3 -13 34 -29 68 -15 35 -34 81 -41 103 -7 22 -16 45
    -20 50 -3 6 -13 30 -20 55 -7 25 -18 50 -23 57 -5 7 -6 16 -3 22 3 5 3 11 -1
    13 -12 5 -100 260 -107 308 -1 9 -5 20 -8 25 -3 6 -9 26 -14 45 -11 50 -11 50
    -13 53 -2 1 -4 13 -7 27 -2 14 -7 32 -10 40 -4 8 -8 24 -9 35 -2 11 -8 38 -14
    60 -7 22 -14 55 -17 74 -2 19 -7 38 -10 42 -5 8 -8 20 -19 79 -3 14 -7 36 -10
    50 -3 14 -7 37 -10 52 -2 15 -6 36 -10 47 -6 19 -10 50 -20 136 -2 22 -9 69
    -14 105 -5 36 -12 90 -16 120 -3 30 -8 62 -10 70 -3 14 -9 72 -21 215 -8 97
    -15 222 -19 370 -3 122 -1 157 12 188 9 20 20 37 25 37 4 0 8 6 8 13 1 11 114
    160 215 282 59 72 214 254 254 300 58 66 413 416 471 467 30 25 65 54 76 65
    40 34 109 91 179 148 39 31 78 62 88 70 9 8 19 15 22 15 3 0 39 27 80 60 69
    54 338 237 375 253 8 4 35 20 60 36 25 16 68 42 95 57 28 14 52 29 55 33 13
    16 502 262 530 266 3 1 30 13 60 27 70 34 177 79 260 111 157 60 286 106 301
    106 8 1 71 -18 140 -40z"/>
    </g>
</svg>
